# xmcd CD database file
#
# Track frame offsets:
#	150
#	13000
#	27450
#	40285
#	60890
#	78185
#	91112
#	107925
#	125590
#	141292
#	160165
#	172025
#
# Disc length: 2473 seconds
#
# Revision: 0
# Processed by: cddbd v1.5.1PL0 Copyright (c) Steve Scherf et al.
# Submitted via: CDex 1.51
#
DISCID=9609a70c
DTITLE=Horace Silver - Horace Silver Trio And Art Blakey-Sabu
DYEAR=1953
DGENRE=Jazz
TTITLE0=Safari
TTITLE1=Ecaroh
TTITLE2=Prelude To A Kiss
TTITLE3=Message From Kenya
TTITLE4=Horoscope
TTITLE5=Yeah
TTITLE6=How About You
TTITLE7=I Remember You
TTITLE8=Opus De Funk
TTITLE9=Nothing But The Soul
TTITLE10=Silverware
TTITLE11=Day In Day Out
EXTD=YEAR: 1953
EXTT0=
EXTT1=
EXTT2=
EXTT3=
EXTT4=
EXTT5=
EXTT6=
EXTT7=
EXTT8=
EXTT9=
EXTT10=
EXTT11=
PLAYORDER=
